<?xml version="1.0" encoding="UTF-8" standalone="no"?>
<!-- Created with Inkscape (http://www.inkscape.org/) -->

<svg
   xmlns:dc="http://purl.org/dc/elements/1.1/"
   xmlns:cc="http://creativecommons.org/ns#"
   xmlns:rdf="http://www.w3.org/1999/02/22-rdf-syntax-ns#"
   xmlns:svg="http://www.w3.org/2000/svg"
   xmlns="http://www.w3.org/2000/svg"
   xmlns:sodipodi="http://sodipodi.sourceforge.net/DTD/sodipodi-0.dtd"
   xmlns:inkscape="http://www.inkscape.org/namespaces/inkscape"
   width="210mm"
   height="297mm"
   id="svg2"
   version="1.1"
   inkscape:version="0.47 r22583"
   sodipodi:docname="couleur.svg">
  <defs
     id="defs4">
    <inkscape:perspective
       sodipodi:type="inkscape:persp3d"
       inkscape:vp_x="0 : 526.18109 : 1"
       inkscape:vp_y="0 : 1000 : 0"
       inkscape:vp_z="744.09448 : 526.18109 : 1"
       inkscape:persp3d-origin="372.04724 : 350.78739 : 1"
       id="perspective10" />
    <inkscape:perspective
       id="perspective2826"
       inkscape:persp3d-origin="0.5 : 0.33333333 : 1"
       inkscape:vp_z="1 : 0.5 : 1"
       inkscape:vp_y="0 : 1000 : 0"
       inkscape:vp_x="0 : 0.5 : 1"
       sodipodi:type="inkscape:persp3d" />
    <inkscape:perspective
       id="perspective3688"
       inkscape:persp3d-origin="0.5 : 0.33333333 : 1"
       inkscape:vp_z="1 : 0.5 : 1"
       inkscape:vp_y="0 : 1000 : 0"
       inkscape:vp_x="0 : 0.5 : 1"
       sodipodi:type="inkscape:persp3d" />
    <inkscape:perspective
       id="perspective3726"
       inkscape:persp3d-origin="0.5 : 0.33333333 : 1"
       inkscape:vp_z="1 : 0.5 : 1"
       inkscape:vp_y="0 : 1000 : 0"
       inkscape:vp_x="0 : 0.5 : 1"
       sodipodi:type="inkscape:persp3d" />
    <inkscape:perspective
       id="perspective3748"
       inkscape:persp3d-origin="0.5 : 0.33333333 : 1"
       inkscape:vp_z="1 : 0.5 : 1"
       inkscape:vp_y="0 : 1000 : 0"
       inkscape:vp_x="0 : 0.5 : 1"
       sodipodi:type="inkscape:persp3d" />
  </defs>
  <sodipodi:namedview
     id="base"
     pagecolor="#ffffff"
     bordercolor="#666666"
     borderopacity="1.0"
     inkscape:pageopacity="0.0"
     inkscape:pageshadow="2"
     inkscape:zoom="0.7"
     inkscape:cx="1.0532274"
     inkscape:cy="1062.3587"
     inkscape:document-units="px"
     inkscape:current-layer="layer1"
     showgrid="false"
     inkscape:window-width="874"
     inkscape:window-height="806"
     inkscape:window-x="830"
     inkscape:window-y="66"
     inkscape:window-maximized="0" />
  <metadata
     id="metadata7">
    <rdf:RDF>
      <cc:Work
         rdf:about="">
        <dc:format>image/svg+xml</dc:format>
        <dc:type
           rdf:resource="http://purl.org/dc/dcmitype/StillImage" />
        <dc:title></dc:title>
      </cc:Work>
    </rdf:RDF>
  </metadata>
  <g
     inkscape:label="Calque 1"
     inkscape:groupmode="layer"
     id="layer1">
    <g
       id="g3626">
      <rect
         ry="22.857143"
         y="76.647896"
         x="72.85714"
         height="218.57143"
         width="154.28572"
         id="rect2816"
         style="fill:#999999" />
      <rect
         ry="22.259571"
         y="78.219322"
         x="74.85714"
         height="212.85715"
         width="148.57146"
         id="rect2816-5"
         style="fill:#ffffff" />
    </g>
    <path
       style="fill:#ff0000;stroke:#000000;stroke-width:0.30806768px;stroke-linecap:butt;stroke-linejoin:miter;stroke-opacity:1"
       d="m 102.91771,101.16197 c -0.0213,-0.29371 0.35424,-0.53537 0.33286,-0.82909 -0.0151,-0.20768 -0.22304,-0.362902 -0.23817,-0.570587 -0.0109,-0.149895 0.42433,-1.056926 0.49928,-1.243624 0.38833,-0.967256 0.77665,-1.934511 1.16498,-2.901773 0.087,-0.216772 0.56872,-1.569679 0.66569,-1.658156 0.31094,-0.283773 0.83109,-0.233202 1.14202,-0.516975 0.10991,-0.100335 0.0565,-0.314204 0.16642,-0.414539 0.15546,-0.141891 0.38068,-0.172334 0.571,-0.258488 0.19034,-0.08617 0.38067,-0.172334 0.57101,-0.258494 0.30061,-0.136084 1.45249,-0.748111 1.71301,-0.77547 0.29086,-0.03057 0.5183,0.342652 0.80917,0.31211 0.20566,-0.02164 0.36533,-0.236893 0.571,-0.258487 0.14545,-0.01528 0.26972,0.104034 0.40457,0.156052 0.13486,0.052 0.26973,0.104033 0.40458,0.15605 0.6743,0.260086 1.3486,0.520173 2.0229,0.780258 0.26577,0.102506 1.54277,0.53873 1.61831,0.624199 0.0958,0.108355 -0.17709,0.267694 -0.16641,0.414539 0.0151,0.207692 0.15876,0.380396 0.23815,0.570591 0.0794,0.190202 0.15877,0.380395 0.23815,0.57059 0.0794,0.190194 0.10265,0.4174 0.23816,0.57059 0.0958,0.108355 0.34845,0.02157 0.40457,0.156052 0.0562,0.134492 -0.17709,0.267687 -0.16642,0.414546 0.0151,0.207677 0.22303,0.362905 0.23817,0.570591 0.0495,0.679419 -0.63884,0.181798 0.0717,0.985122 0.0958,0.108354 0.34844,0.02157 0.40457,0.156051 0.11227,0.268978 -0.35423,0.53538 -0.33285,0.829078 0.0151,0.207692 0.22303,0.36292 0.23815,0.570598 0.0213,0.293706 -0.35422,0.535366 -0.33284,0.829066 0.0152,0.20769 0.22303,0.36292 0.23815,0.5706 0.0222,0.30534 -0.85413,1.77039 -0.83212,2.0727 0.0107,0.14685 0.34845,0.0216 0.40459,0.15605 0.0651,0.15614 -0.68516,1.39095 -0.6657,1.65816 0.0151,0.20768 0.22303,0.3629 0.23814,0.5706 0.0107,0.14652 -0.92852,2.31284 -0.99853,2.48723 -0.4438,1.10544 -0.88761,2.21088 -1.3314,3.31632 -0.0555,0.13819 -0.0318,0.35361 -0.16643,0.41455 -0.13458,0.0609 -0.27,-0.21699 -0.40459,-0.15605 -0.18821,0.0852 -0.44767,1.3958 -0.66569,1.65815 -0.13471,0.16213 -0.41554,0.11661 -0.571,0.25848 -0.21986,0.20067 -0.11299,0.62843 -0.33286,0.82908 -0.15545,0.14189 -0.41554,0.11661 -0.571,0.2585 -0.10991,0.10034 -0.0712,0.29989 -0.16642,0.41454 -0.21304,0.25634 -0.52439,0.41668 -0.73743,0.67302 -0.1661,0.19987 -0.54362,1.6029 -0.6657,1.65816 -0.13458,0.061 -0.26999,-0.21698 -0.40458,-0.15605 -0.13459,0.061 -0.0565,0.31421 -0.16643,0.41454 -0.15546,0.14189 -0.41553,0.1166 -0.57099,0.25849 -0.10992,0.10033 -0.0319,0.35361 -0.16643,0.41453 -0.13458,0.061 -0.26999,-0.21697 -0.40458,-0.15605 -0.13459,0.061 -0.0565,0.31421 -0.16643,0.41455 -0.15546,0.14188 -0.41554,0.1166 -0.571,0.25849 -0.10991,0.10033 -0.0565,0.3142 -0.16643,0.41453 -0.15546,0.1419 -0.41554,0.11661 -0.57099,0.2585 -0.21987,0.20065 -0.11299,0.62841 -0.33286,0.82907 -0.15545,0.14189 -0.41554,0.11661 -0.571,0.25849 -0.10991,0.10034 -0.0318,0.35362 -0.16642,0.41455 -0.76135,0.34464 -0.12721,-0.84695 -0.57101,0.25848 -0.6743,-0.26008 -1.3486,-0.52016 -2.02291,-0.78025 -0.13485,-0.0519 -0.34844,-0.0215 -0.40457,-0.15605 -0.0561,-0.13449 0.22256,-0.28006 0.16642,-0.41454 -0.01,-0.0229 -1.46973,-0.5669 -1.61832,-0.62421 -0.13485,-0.0519 -0.26971,-0.10403 -0.40457,-0.15605 -0.134861,-0.052 -0.348453,-0.0215 -0.404588,-0.15605 -0.05607,-0.1345 0.222569,-0.28005 0.166425,-0.41454 -0.05607,-0.13449 -0.269711,-0.10404 -0.404579,-0.15605 -0.674289,-0.26009 -1.348595,-0.52017 -2.022899,-0.78026 -0.134848,-0.052 -0.348448,-0.0216 -0.404572,-0.15606 -0.05611,-0.13449 0.222551,-0.28004 0.166427,-0.41452 -0.07049,-0.16883 -1.419272,-0.39917 -1.618325,-0.62421 -0.270999,-0.30639 -0.205312,-0.8348 -0.476311,-1.14118 -0.191626,-0.21665 -0.617531,-0.0955 -0.809158,-0.31212 -0.135502,-0.15317 -0.102656,-0.41739 -0.238158,-0.57058 -0.127422,-0.14406 -1.165047,-0.3515 -1.213737,-0.46815 -0.05611,-0.13449 0.222551,-0.28006 0.166427,-0.41454 -0.04871,-0.11665 -1.086323,-0.32411 -1.213744,-0.46815 -0.135503,-0.1532 -0.102656,-0.41742 -0.238152,-0.5706 -0.09581,-0.10835 -0.308751,-0.0478 -0.404579,-0.15604 -0.135503,-0.15319 -0.102649,-0.41741 -0.238159,-0.5706 -0.191627,-0.21664 -0.696889,-0.0431 -0.809158,-0.31211 -0.05611,-0.13448 0.222558,-0.28004 0.166427,-0.41453 -0.112269,-0.26899 -0.617531,-0.0955 -0.809158,-0.31211 -0.13551,-0.15319 -0.102663,-0.41739 -0.238159,-0.57058 -0.0958,-0.10836 -0.348441,-0.0215 -0.404586,-0.15606 -0.05611,-0.13448 0.222565,-0.28005 0.166427,-0.41454 -0.05611,-0.13449 -0.34844,-0.0216 -0.404572,-0.15605 -0.05611,-0.13449 0.222559,-0.28005 0.166428,-0.41454 -0.05611,-0.13449 -0.348449,-0.0216 -0.404579,-0.15605 -0.05618,-0.13449 0.222558,-0.28005 0.16642,-0.41455 -0.112269,-0.26897 -0.696889,-0.0431 -0.809166,-0.31211 -0.05611,-0.13447 0.222559,-0.28003 0.166428,-0.41452 -0.112262,-0.26898 -0.696897,-0.0431 -0.809158,-0.31211 -0.05611,-0.13447 0.222558,-0.28004 0.16642,-0.41454 -0.05611,-0.13449 -0.348435,-0.0215 -0.404579,-0.15605 -0.112263,-0.26898 0.445123,-0.5601 0.332847,-0.82906 -0.05611,-0.13451 -0.348448,-0.0216 -0.404583,-0.15607 -0.492755,-1.18057 1.265713,0.52698 -0.07174,-0.98512 -0.09583,-0.1083 -0.393898,-0.009 -0.404587,-0.15606 -0.02134,-0.2937 0.312888,-0.534 0.332851,-0.82907 0.09852,-1.45629 -0.325195,0.0341 -0.642741,-0.72665 -0.05615,-0.13449 0.22257,-0.28004 0.166426,-0.41454 -0.396923,-0.95098 -1.014805,1.36393 -0.07174,-0.98513 -0.01067,-0.14685 -0.348451,-0.0215 -0.404578,-0.15605 -0.05615,-0.13449 0.22256,-0.28005 0.166416,-0.41454 -0.05607,-0.13449 -0.348443,-0.0215 -0.404578,-0.15605 -0.01084,-0.0258 0.753656,-1.877245 0.832126,-2.072694 0.332851,-0.829086 0.665703,-1.658164 0.99855,-2.487242 0.05547,-0.138184 0.110951,-0.276361 0.166427,-0.414546 0.05547,-0.138177 0.05653,-0.314196 0.16642,-0.414532 0.155462,-0.141897 0.415537,-0.116604 0.571006,-0.258494 0.109912,-0.100328 0.05653,-0.314204 0.166427,-0.414539 0.155469,-0.141891 0.415538,-0.116604 0.570999,-0.258488 0.109919,-0.100335 0.05653,-0.314203 0.166427,-0.414539 0.155462,-0.14189 0.415538,-0.116604 0.571,-0.258494 0.109911,-0.100336 0.05653,-0.314197 0.166426,-0.414539 0.155462,-0.141884 0.380669,-0.172321 0.571007,-0.258488 0.19033,-0.08615 0.380668,-0.17232 0.571005,-0.258487 0.300613,-0.136084 1.452488,-0.748118 1.713012,-0.775463 0.145443,-0.01528 0.259164,0.171288 0.404579,0.156052 0.411343,-0.0432 0.730669,-0.473795 1.142005,-0.516983 0.145451,-0.01528 0.259136,0.171358 0.404586,0.156052 0.205661,-0.02157 0.365331,-0.236886 0.571007,-0.258481 0.29085,-0.03057 0.518285,0.342638 0.80915,0.312097 0.205675,-0.02157 0.365331,-0.236894 0.571006,-0.258482 0.176403,-0.0185 1.741495,0.671708 2.022894,0.780251 0.134876,0.052 0.348451,0.02157 0.404587,0.156052 0.05607,0.134485 -0.222553,0.280047 -0.166417,0.414539 0.05615,0.134485 0.348443,0.02157 0.40457,0.156052 0.05607,0.134485 -0.222553,0.280046 -0.166425,0.414539 0.05607,0.134492 0.348451,0.02157 0.404578,0.156043 0.05615,0.1345 -0.222561,0.280054 -0.166417,0.414539 0.05607,0.1345 0.348435,0.02157 0.404579,0.156052 0.05615,0.134499 -0.222561,0.280054 -0.166434,0.414546 0.05607,0.134492 0.34846,0.02157 0.404587,0.156052 0.05607,0.134492 -0.177097,0.267686 -0.166425,0.414546 0.01508,0.207677 0.223035,0.362898 0.238162,0.570591 0.01067,0.146845 -0.222561,0.280046 -0.166426,0.414531 0.05607,0.134493 0.348436,0.02157 0.404576,0.156052 0.0561,0.134492 -0.17711,0.267693 -0.16643,0.414539 0.0151,0.207678 0.15877,0.380388 0.23816,0.57059 0.0794,0.190201 0.10266,0.417407 0.23815,0.570591 0.0958,0.108291 0.30878,0.04767 0.40458,0.156051 0.271,0.30638 0.20531,0.834801 1.99993,3.165064 z"
       id="path3653" />
    <rect
       style="fill:#ff0000"
       id="rect3676"
       width="24.312426"
       height="23.445452"
       x="30.888042"
       y="204.28827"
       ry="0"
       transform="matrix(0.64115599,-0.76741058,0.76835604,0.64002266,0,0)" />
    <g
       id="g3708"
       transform="matrix(-0.7486756,0.01676765,-0.01617227,-0.72209213,55.409255,519.49921)">
      <path
         id="path3653-4"
         d="m -62.48522,348.79276 c -0.0213,-0.29371 0.35424,-0.53537 0.33286,-0.82909 -0.0151,-0.20768 -0.22304,-0.3629 -0.23817,-0.57059 -0.0109,-0.14989 0.42433,-1.05693 0.49928,-1.24362 0.38833,-0.96726 0.77665,-1.93451 1.16498,-2.90178 0.087,-0.21677 0.56872,-1.56968 0.66569,-1.65815 0.31094,-0.28378 0.83109,-0.2332 1.14202,-0.51698 0.10991,-0.10033 0.0565,-0.3142 0.16642,-0.41454 0.15546,-0.14189 0.38068,-0.17233 0.571,-0.25848 0.19034,-0.0862 0.38067,-0.17234 0.57101,-0.2585 0.30061,-0.13608 1.45249,-0.74811 1.71301,-0.77547 0.29086,-0.0306 0.5183,0.34265 0.80917,0.31211 0.20566,-0.0216 0.36533,-0.23689 0.571,-0.25849 0.14545,-0.0153 0.26972,0.10404 0.40457,0.15606 0.13486,0.052 0.26973,0.10403 0.40458,0.15605 0.6743,0.26008 1.3486,0.52017 2.0229,0.78025 0.26577,0.10251 1.54277,0.53873 1.61831,0.6242 0.0958,0.10836 -0.17709,0.2677 -0.16641,0.41454 0.0151,0.20769 0.15876,0.3804 0.23815,0.57059 0.0794,0.19021 0.15877,0.3804 0.23815,0.57059 0.0794,0.1902 0.10265,0.4174 0.23816,0.57059 0.0958,0.10836 0.34845,0.0216 0.40457,0.15606 0.0562,0.13449 -0.17709,0.26768 -0.16642,0.41454 0.0151,0.20768 0.22303,0.36291 0.23817,0.57059 0.0495,0.67942 -0.63884,0.1818 0.0717,0.98512 0.0958,0.10836 0.34844,0.0216 0.40457,0.15606 0.11227,0.26897 -0.35423,0.53538 -0.33285,0.82907 0.0151,0.2077 0.22303,0.36292 0.23815,0.5706 0.0213,0.29371 -0.35422,0.53537 -0.33284,0.82907 0.0152,0.20769 0.22303,0.36292 0.23815,0.5706 0.0222,0.30534 -0.85413,1.77039 -0.83212,2.0727 0.0107,0.14685 0.34845,0.0216 0.40459,0.15605 0.0651,0.15614 -0.68516,1.39095 -0.6657,1.65816 0.0151,0.20768 0.22303,0.3629 0.23814,0.5706 0.0107,0.14652 -0.92852,2.31284 -0.99853,2.48723 -0.4438,1.10544 -0.88761,2.21088 -1.3314,3.31632 -0.0555,0.13819 -0.0318,0.35361 -0.16643,0.41455 -0.13458,0.0609 -0.27,-0.21699 -0.40459,-0.15605 -0.18821,0.0852 -0.44767,1.3958 -0.66569,1.65815 -0.13471,0.16213 -0.41554,0.11661 -0.571,0.25848 -0.21986,0.20067 -0.11299,0.62843 -0.33286,0.82908 -0.15545,0.14189 -0.41554,0.11661 -0.571,0.2585 -0.10991,0.10034 -0.0712,0.29989 -0.16642,0.41454 -0.21304,0.25634 -0.52439,0.41668 -0.73743,0.67302 -0.1661,0.19987 -0.54362,1.6029 -0.6657,1.65816 -0.13458,0.061 -0.26999,-0.21698 -0.40458,-0.15605 -0.13459,0.061 -0.0565,0.31421 -0.16643,0.41454 -0.15546,0.14189 -0.41553,0.1166 -0.57099,0.25849 -0.10992,0.10033 -0.0319,0.35361 -0.16643,0.41453 -0.13458,0.061 -0.26999,-0.21697 -0.40458,-0.15605 -0.13459,0.061 -0.0565,0.31421 -0.16643,0.41455 -0.15546,0.14188 -0.41554,0.1166 -0.571,0.25849 -0.10991,0.10033 -0.0565,0.3142 -0.16643,0.41453 -0.15546,0.1419 -0.41554,0.11661 -0.57099,0.2585 -0.21987,0.20065 -0.11299,0.62841 -0.33286,0.82907 -0.15545,0.14189 -0.41554,0.11661 -0.571,0.25849 -0.10991,0.10034 -0.0318,0.35362 -0.16642,0.41455 -0.76135,0.34464 -0.12721,-0.84695 -0.57101,0.25848 -0.6743,-0.26008 -1.3486,-0.52016 -2.02291,-0.78025 -0.13485,-0.0519 -0.34844,-0.0215 -0.40457,-0.15605 -0.0561,-0.13449 0.22256,-0.28006 0.16642,-0.41454 -0.01,-0.0229 -1.46973,-0.5669 -1.61832,-0.62421 -0.13485,-0.0519 -0.26971,-0.10403 -0.40457,-0.15605 -0.13486,-0.052 -0.34845,-0.0215 -0.40459,-0.15605 -0.0561,-0.1345 0.22257,-0.28005 0.16643,-0.41454 -0.0561,-0.13449 -0.26971,-0.10404 -0.40458,-0.15605 -0.67429,-0.26009 -1.3486,-0.52017 -2.0229,-0.78026 -0.13485,-0.052 -0.34845,-0.0216 -0.40457,-0.15606 -0.0561,-0.13449 0.22255,-0.28004 0.16643,-0.41452 -0.0705,-0.16883 -1.41928,-0.39917 -1.61833,-0.62421 -0.270999,-0.30639 -0.205312,-0.8348 -0.476311,-1.14118 -0.191626,-0.21665 -0.617531,-0.0955 -0.809158,-0.31212 -0.135502,-0.15317 -0.102656,-0.41739 -0.238158,-0.57058 -0.127422,-0.14406 -1.165047,-0.3515 -1.213737,-0.46815 -0.05611,-0.13449 0.222551,-0.28006 0.166427,-0.41454 -0.04871,-0.11665 -1.086323,-0.32411 -1.213744,-0.46815 -0.135503,-0.1532 -0.102656,-0.41742 -0.238152,-0.5706 -0.09581,-0.10835 -0.308751,-0.0478 -0.404579,-0.15604 -0.135503,-0.15319 -0.102649,-0.41741 -0.238159,-0.5706 -0.191627,-0.21664 -0.696889,-0.0431 -0.809158,-0.31211 -0.05611,-0.13448 0.222558,-0.28004 0.166427,-0.41453 -0.112269,-0.26899 -0.617531,-0.0955 -0.809158,-0.31211 -0.13551,-0.15319 -0.102663,-0.41739 -0.238159,-0.57058 -0.0958,-0.10836 -0.348441,-0.0215 -0.404586,-0.15606 -0.05611,-0.13448 0.222565,-0.28005 0.166427,-0.41454 -0.05611,-0.13449 -0.34844,-0.0216 -0.404572,-0.15605 -0.05611,-0.13449 0.222559,-0.28005 0.166428,-0.41454 -0.05611,-0.13449 -0.348449,-0.0216 -0.404579,-0.15605 -0.05618,-0.13449 0.222558,-0.28005 0.16642,-0.41455 -0.112269,-0.26897 -0.696889,-0.0431 -0.809166,-0.31211 -0.05611,-0.13447 0.222559,-0.28003 0.166428,-0.41452 -0.112262,-0.26898 -0.696897,-0.0431 -0.809158,-0.31211 -0.05611,-0.13447 0.222558,-0.28004 0.16642,-0.41454 -0.05611,-0.13449 -0.348435,-0.0215 -0.404579,-0.15605 -0.112263,-0.26898 0.445123,-0.5601 0.332847,-0.82906 -0.05611,-0.13451 -0.348448,-0.0216 -0.404583,-0.15607 -0.492755,-1.18057 1.265713,0.52698 -0.07174,-0.98512 -0.09583,-0.1083 -0.393898,-0.009 -0.404587,-0.15606 -0.02134,-0.2937 0.312888,-0.534 0.332851,-0.82907 0.09852,-1.45629 -0.325195,0.0341 -0.642741,-0.72665 -0.05615,-0.13449 0.22257,-0.28004 0.166426,-0.41454 -0.396923,-0.95098 -1.014805,1.36393 -0.07174,-0.98513 -0.01067,-0.14685 -0.348451,-0.0215 -0.404578,-0.15605 -0.05615,-0.13449 0.22256,-0.28005 0.166416,-0.41454 -0.05607,-0.13449 -0.348443,-0.0215 -0.404578,-0.15605 -0.01084,-0.0258 0.753656,-1.87725 0.832126,-2.0727 0.332851,-0.82908 0.665703,-1.65816 0.99855,-2.48724 0.05547,-0.13818 0.110951,-0.27636 0.166427,-0.41454 0.05547,-0.13818 0.05653,-0.3142 0.16642,-0.41454 0.155462,-0.14189 0.415537,-0.1166 0.571006,-0.25849 0.109912,-0.10033 0.05653,-0.3142 0.166427,-0.41454 0.155469,-0.14189 0.415538,-0.1166 0.570999,-0.25849 0.109919,-0.10033 0.05653,-0.3142 0.166427,-0.41454 0.155462,-0.14189 0.415538,-0.1166 0.571,-0.25849 0.109911,-0.10034 0.05653,-0.3142 0.166426,-0.41454 0.155462,-0.14188 0.380669,-0.17232 0.571007,-0.25849 0.19033,-0.0862 0.380668,-0.17232 0.571005,-0.25848 0.300613,-0.13609 1.452488,-0.74812 1.713012,-0.77547 0.145443,-0.0153 0.259164,0.17129 0.404579,0.15605 0.411343,-0.0432 0.730669,-0.47379 1.142005,-0.51698 0.145451,-0.0153 0.259136,0.17136 0.404586,0.15605 0.205661,-0.0216 0.365331,-0.23688 0.571007,-0.25848 0.290854,-0.0306 0.518284,0.34264 0.809154,0.3121 0.20567,-0.0216 0.36533,-0.23689 0.571,-0.25848 0.17641,-0.0185 1.7415,0.67171 2.0229,0.78025 0.13487,0.052 0.34845,0.0216 0.40458,0.15605 0.0561,0.13449 -0.22255,0.28005 -0.16641,0.41454 0.0562,0.13448 0.34844,0.0216 0.40457,0.15605 0.0561,0.13449 -0.22256,0.28005 -0.16643,0.41454 0.0561,0.13449 0.34845,0.0216 0.40458,0.15604 0.0561,0.1345 -0.22256,0.28006 -0.16642,0.41454 0.0561,0.1345 0.34844,0.0216 0.40458,0.15605 0.0562,0.1345 -0.22256,0.28006 -0.16643,0.41455 0.0561,0.13449 0.34846,0.0216 0.40458,0.15605 0.0561,0.13449 -0.17709,0.26769 -0.16642,0.41455 0.0151,0.20768 0.22303,0.3629 0.23816,0.57059 0.0107,0.14684 -0.22256,0.28005 -0.16642,0.41453 0.0561,0.13449 0.34843,0.0216 0.40457,0.15605 0.0561,0.13449 -0.17711,0.2677 -0.16643,0.41454 0.0151,0.20768 0.15877,0.38039 0.23816,0.57059 0.0794,0.1902 0.10266,0.41741 0.23815,0.57059 0.0958,0.10829 0.30878,0.0477 0.40458,0.15605 0.271,0.30638 0.20531,0.8348 1.99993,3.16507 z"
         style="fill:#000000;stroke:#000000;stroke-width:0.30806768px;stroke-linecap:butt;stroke-linejoin:miter;stroke-opacity:1" />
      <path
         id="path3706"
         d="m -71.835762,326.44658 8.854649,30.96564 7.674015,-31.52865 -16.528664,0.56301 z"
         style="fill:#000000;stroke:#000000;stroke-width:1.61419713px;stroke-linecap:butt;stroke-linejoin:miter;stroke-opacity:1" />
    </g>
    <g
       id="g3762"
       transform="matrix(0.61523038,0,0,0.61136129,265.33155,173.23899)">
      <path
         sodipodi:nodetypes="cscscc"
         id="path3714"
         d="m -123.23861,180.60054 c 0,0 5.88469,-5.77363 8.09029,-9.35969 2.15698,-3.50702 4.62327,-10.96066 4.62327,-10.96066 0,0 2.68478,7.43662 4.83075,10.88707 2.25179,3.62062 8.719656,9.43327 8.719656,9.43327 l -26.263966,1e-5 z"
         style="fill:#000000;stroke:#000000;stroke-width:1px;stroke-linecap:butt;stroke-linejoin:miter;stroke-opacity:1" />
      <path
         transform="matrix(0.58925073,-1.0843593,1.2053291,0.53011207,-229.92522,-23.729399)"
         d="m -78.571425,153.07646 c 0,4.63525 -5.276644,8.39286 -11.785715,8.39286 -6.50907,0 -11.78571,-3.75761 -11.78571,-8.39286 0,-4.63525 5.27664,-8.39286 11.78571,-8.39286 6.509071,0 11.785715,3.75761 11.785715,8.39286 z"
         sodipodi:ry="8.3928576"
         sodipodi:rx="11.785714"
         sodipodi:cy="153.07646"
         sodipodi:cx="-90.35714"
         id="path3716"
         style="fill:#000000"
         sodipodi:type="arc" />
      <path
         transform="matrix(-0.53400624,-1.1844963,-1.0923249,0.57906617,-0.86346619,-41.521203)"
         d="m -78.571425,153.07646 c 0,4.63525 -5.276644,8.39286 -11.785715,8.39286 -6.50907,0 -11.78571,-3.75761 -11.78571,-8.39286 0,-4.63525 5.27664,-8.39286 11.78571,-8.39286 6.509071,0 11.785715,3.75761 11.785715,8.39286 z"
         sodipodi:ry="8.3928576"
         sodipodi:rx="11.785714"
         sodipodi:cy="153.07646"
         sodipodi:cx="-90.35714"
         id="path3716-8"
         style="fill:#000000"
         sodipodi:type="arc" />
      <path
         inkscape:transform-center-y="-13.786827"
         inkscape:transform-center-x="0.18052264"
         transform="matrix(0.06752693,-1.2975493,-1.2362339,0.01473111,86.230757,21.756096)"
         d="m -78.571425,153.07646 c 0,4.63525 -5.276644,8.39286 -11.785715,8.39286 -6.50907,0 -11.78571,-3.75761 -11.78571,-8.39286 0,-4.63525 5.27664,-8.39286 11.78571,-8.39286 6.509071,0 11.785715,3.75761 11.785715,8.39286 z"
         sodipodi:ry="8.3928576"
         sodipodi:rx="11.785714"
         sodipodi:cy="153.07646"
         sodipodi:cx="-90.35714"
         id="path3716-8-0"
         style="fill:#000000"
         sodipodi:type="arc" />
    </g>
  </g>
</svg>
